<svg xmlns="http://www.w3.org/2000/svg" fill="none" viewBox="0 0 36 36"><path fill="#5564ff" d="M18 36c9.941 0 18-8.059 18-18S27.941 0 18 0 0 8.059 0 18s8.059 18 18 18z"/><path fill="#fff" d="M15.599 17.196h-4.002c-.88 0-1.597-.717-1.597-1.597v-4.002c0-.88.716-1.597 1.597-1.597h4.002c.88 0 1.596.716 1.596 1.597v4.002c0 .88-.716 1.597-1.596 1.597zM22.402 17.196a3.598 3.598 0 1 1 0-7.196 3.598 3.598 0 0 1 0 7.196zM15.599 26h-4.002c-.88 0-1.597-.716-1.597-1.597v-4.002c0-.88.716-1.597 1.597-1.597h4.002c.88 0 1.596.717 1.596 1.597v4.002c0 .88-.716 1.597-1.596 1.597zM24.403 26h-4.002c-.88 0-1.597-.716-1.597-1.597v-4.002c0-.88.717-1.597 1.597-1.597h4.002c.88 0 1.597.717 1.597 1.597v4.002c0 .88-.717 1.597-1.597 1.597z"/></svg>